<?xml version="1.0" encoding="UTF-8"?><svg id="Layer_2" xmlns="http://www.w3.org/2000/svg" viewBox="0 0 93.09 86.49"><defs><style>.cls-1{fill:#48c2c5;}.cls-1,.cls-2,.cls-3,.cls-4,.cls-5,.cls-6,.cls-7{stroke-width:0px;}.cls-2{fill:#f16667;}.cls-3{fill:#969;}.cls-4{fill:#336;}.cls-5{fill:#cccb31;}.cls-6{fill:#f8991d;}.cls-7{fill:#fff;}</style></defs><g id="Layer_1-2"><path class="cls-4" d="M6.58,84.51v-7.35c0-.84-.68-1.53-1.53-1.53H1.98c-1.09,0-1.98-.89-1.98-1.98v-15.98c0-.62.29-1.2.78-1.58l5.19-3.93c.38-.29.61-.74.61-1.22v-17.99c0-.48.22-.93.61-1.22L48.47.46c.81-.61,1.93-.61,2.74,0l10.58,8.01c.55.41,1.3.41,1.85,0l9.51-7.2c1.01-.76,2.45-.04,2.45,1.22v15.67c0,.48.22.93.6,1.22l16.11,12.2c.49.37.78.96.78,1.58v51.34c0,1.09-.89,1.98-1.98,1.98H8.56c-1.09,0-1.98-.89-1.98-1.98Z"/><path class="cls-1" d="M10.46,33.35L48.92,4.22c.55-.41,1.3-.41,1.85,0l8.37,6.33c.44.34.44,1,0,1.34L11.2,48.2c-.55.42-1.35.02-1.35-.67v-12.96c0-.48.22-.93.61-1.22Z"/><path class="cls-2" d="M66.3,10.55l4.57-3.46c.6-.46,1.46-.03,1.46.73v6.74c0,.78-.89,1.22-1.51.75l-4.52-3.42c-.44-.34-.44-1,0-1.34Z"/><path class="cls-6" d="M61.11,70.39v-26.62c0-1.09-.89-1.98-1.98-1.98h-16.61c-1.09,0-1.98.89-1.98,1.98v27.47c0,.62-.51,1.13-1.13,1.13h-.85c-.67,0-1.22-.55-1.22-1.22v-15.42c0-1.09-.89-1.98-1.98-1.98h-14.9c-1.09,0-1.98.89-1.98,1.98v14.66c0,1.09-.89,1.98-1.98,1.98h-5.05c-.89,0-1.61-.72-1.61-1.61v-15.86c0-.62.29-1.2.78-1.58L61.95,14.61c.71-.54,1.68-.54,2.39,0l7.2,5.35c.49.37.78.96.78,1.58l-.02,48.85c0,1.09-.89,1.98-1.98,1.98h-7.24c-1.09,0-1.98-.89-1.98-1.98Z"/><path class="cls-1" d="M3.27,71.17v-12.11c0-.48.22-.93.61-1.22l1.55-1.17c.48-.36,1.16-.02,1.16.58v14c0,.62-.5,1.12-1.12,1.12h-1.01c-.66,0-1.2-.54-1.2-1.2Z"/><rect class="cls-2" x="21.75" y="57.01" width="12.33" height="15.33" rx="1.53" ry="1.53"/><path class="cls-5" d="M61.11,81.7v-4.54c0-.84.68-1.53,1.53-1.53h11.41c.84,0,1.53-.68,1.53-1.53l.02-49.39c0-.69.79-1.09,1.35-.67l12.29,9.31c.38.29.61.74.61,1.22v47.13c0,.84-.68,1.53-1.53,1.53h-25.66c-.84,0-1.53-.68-1.53-1.53ZM9.85,81.7v-4.54c0-.84.68-1.53,1.53-1.53h27.63c.84,0,1.53.68,1.53,1.53v4.54c0,.84-.68,1.53-1.53,1.53H11.38c-.84,0-1.53-.68-1.53-1.53Z"/><rect class="cls-3" x="43.8" y="45.05" width="14.04" height="27.32" rx="1.53" ry="1.53"/><rect class="cls-7" x="43.8" y="75.63" width="14.04" height="7.59" rx="1.53" ry="1.53"/></g></svg>