<?xml version="1.0" encoding="UTF-8"?><svg id="Layer_2" xmlns="http://www.w3.org/2000/svg" viewBox="0 0 125.41 204.37"><defs><style>.cls-1{fill:#231f20;}.cls-2{stroke-linecap:round;stroke-linejoin:round;stroke-width:4px;}.cls-2,.cls-3,.cls-4{stroke:#231f20;}.cls-2,.cls-5,.cls-4{fill:none;}.cls-6,.cls-3{fill:#fff;}.cls-6,.cls-3,.cls-5,.cls-4{stroke-miterlimit:10;stroke-width:6px;}.cls-6,.cls-5{stroke:#000;}</style></defs><g id="Layer_1-2"><rect class="cls-3" x="3" y="3" width="119.41" height="198.37" rx="51.59" ry="51.59"/><path d="M62.07,4.69h-7.48C26.22,4.69,3,27.9,3,56.28v13.39h58.23l.84-64.98Z"/><line class="cls-5" x1="3" y1="71.78" x2="121.99" y2="71.78"/><rect class="cls-6" x="56.59" y="40.13" width="13.08" height="56.96" rx="6.54" ry="6.54"/><line class="cls-4" x1="62.92" y1="2.78" x2="62.92" y2="40.76"/><line class="cls-2" x1="63.36" y1="118.17" x2="63.36" y2="172.89"/><polygon class="cls-1" points="53.39 121.08 63.36 103.81 73.34 121.08 53.39 121.08"/><polygon class="cls-1" points="53.39 169.97 63.36 187.24 73.34 169.97 53.39 169.97"/><line class="cls-2" x1="91.44" y1="145.65" x2="34.23" y2="145.65"/><polygon class="cls-1" points="88.52 135.68 105.8 145.65 88.52 155.63 88.52 135.68"/><polygon class="cls-1" points="37.15 135.68 19.88 145.65 37.15 155.63 37.15 135.68"/></g></svg>